<svg xmlns="http://www.w3.org/2000/svg" viewBox="0 0 207 164.29">
    <defs>
        <style>
            .cls-1 {
                fill: #1e3a8a;
            }
        </style>
    </defs>
    <g id="Layer_2" data-name="Layer 2">
        <g id="Layer_1-2" data-name="Layer 1">
            <path class="cls-1"
                d="M103.5,77.29a29,29,0,1,1,29-29A29,29,0,0,1,103.5,77.29Zm0-50a21,21,0,1,0,21,21A21,21,0,0,0,103.5,27.29Z" />
            <polygon class="cls-1" points="103.63 0 45.85 22.15 103.32 50.47 161.15 22.17 103.63 0" />
            <polyline class="cls-1" points="151.83 50.28 151.83 32.28 151.83 26.73 153.28 26.02 153.28 50.28" />
            <circle class="cls-1" cx="152.56" cy="50.28" r="3.8" />
            <polyline class="cls-1" points="99 83.28 108 83.28 108 164.28 99 164.28" />
            <polyline class="cls-1" points="117 83.28 117 164.28 207 119.28 207 38.28" />
            <polyline class="cls-1" points="90 83.28 90 164.28 0 119.28 0 38.28" />
        </g>
    </g>
</svg>