<svg xmlns="http://www.w3.org/2000/svg" width="334.355" height="440" viewBox="0 0 334.355 440"><g transform="translate(-41 -280)"><text transform="translate(208 337)" fill="#fff" font-size="60" font-family="Roboto-Bold, Roboto" font-weight="700" letter-spacing="0.033em"><tspan x="-124.286" y="0">WeLearn</tspan></text><g transform="translate(41 373)"><path d="M550.265,212.456H771.7a20.674,20.674,0,0,1,4.415,1.827c4.631,2.956,6.914,7.278,7.116,12.819.014.384.009.769.009,1.154q0,63.378.006,126.757a16.381,16.381,0,0,1-2.678,9.818c-3.178,4.492-7.571,6.307-12.882,6.306q-105.156-.028-210.311-.012c-1.218,0-2.435.011-3.653,0-8.817-.112-14.972-6.349-14.978-15.387q-.046-64.1,0-128.2a14.808,14.808,0,0,1,7.233-13.324A21.045,21.045,0,0,1,550.265,212.456ZM660.978,362.4V362.4H767.056c.749,0,1.5.012,2.247-.02a5.563,5.563,0,0,0,5.409-5.514c.026-.624.019-1.25.019-1.875q0-63.312,0-126.624c0-.625.007-1.25-.02-1.874a5.678,5.678,0,0,0-4.023-5.327,8.762,8.762,0,0,0-2.784-.254q-106.921-.006-213.842-.005c-.468,0-.937-.008-1.4.016a5.681,5.681,0,0,0-5.406,5.565c-.026.576-.02,1.153-.02,1.73q0,63.456,0,126.912c0,.529,0,1.058.013,1.586a5.584,5.584,0,0,0,5.549,5.672c.749.027,1.5.017,2.248.017Z" transform="translate(-493.721 -212.456)" fill="#002e62"/><path d="M493.8,769.3c.927-.031,1.854-.089,2.781-.089q164.4-.009,328.793-.005c.927,0,1.854.062,2.78.094v4.6c-.127.424-.273.843-.378,1.273-1.841,7.583-5.841,12.949-12.857,15.227H507.037a17.717,17.717,0,0,1-9.954-7.884,31.727,31.727,0,0,1-3.281-8.616Z" transform="translate(-493.802 -603.907)" fill="#002e62"/><path d="M794.848,403.84q-28.836,0-57.672.006c-5.377,0-10.755.1-16.133.126-1.976.011-2.118-.121-2.126-1.862-.028-6.281-.027-12.563-.059-18.845q-.128-24.994-.274-49.988c-.012-2.288,0-2.293,2.672-2.3,2.39,0,4.781-.019,7.171.03.922.019,1.521-.16,1.3-1.069-.619-2.577.83-3.842,3.479-4.535,2.095-.548,4.105-1.34,6.192-1.914,1.128-.31,1.618-.785,1.581-1.856-.079-2.354.021-4.712-.06-7.065-.037-1.068.413-1.557,1.577-1.825a89.414,89.414,0,0,1,16.053-2.194c10.6-.482,21.161-.138,31.3,2.859a15.993,15.993,0,0,0,9.661-.032c9.99-2.894,20.352-3.518,30.83-3A100.75,100.75,0,0,1,846,312.3c2.307.481,2.322.489,2.337,2.626.015,1.963.1,3.93,0,5.888-.076,1.4.418,2.138,2.058,2.493a54.507,54.507,0,0,1,7.559,2.439,2.024,2.024,0,0,1,1.58,2.2c-.069,2.875-.322,2.676,3.048,2.669,2.241,0,4.483.012,6.723-.031,1.013-.019,1.481.343,1.472,1.219-.005.523.02,1.046.021,1.57.029,13.392.036,26.784.094,40.176.04,9.2.155,18.406.229,27.61.018,2.336,0,2.34-2.613,2.345q-24.652.04-49.3.075-12.175.014-24.35,0Zm-2.376-53.253h-.359c0-9.6.043-19.192-.02-28.788-.027-4.021.992-3.435-4.1-4.644-13.106-3.108-26.36-3.143-39.672-1.122-2.462.374-2.458.393-2.453,2.565q.054,23.492.117,46.983c.016,4.536.14,9.072.176,13.607.008,1.076.353,1.474,1.693,1.239a94.538,94.538,0,0,1,11.1-1.2,98.005,98.005,0,0,1,31.883,3c1.648.458,1.637.468,1.636-1.008Q792.47,365.9,792.473,350.588Zm51.279-2.409h-.3c0-10.115-.025-20.231.031-30.346.008-1.334-.514-1.823-1.987-2.015a116.949,116.949,0,0,0-22.45-1.058,99,99,0,0,0-20.206,3.23c-1.374.378-1.846.979-1.826,2.248.116,7.279.087,14.56.171,21.841.149,12.818.106,25.637.143,38.455,0,.392.014.785.008,1.177-.011.711.353.949,1.129.722.9-.262,1.791-.534,2.7-.758a105.488,105.488,0,0,1,40.518-1.591c2.064.294,2.068.295,2.068-1.563Q843.753,363.35,843.752,348.179ZM734.906,363.814c0,7.7,0,17.907,0,28.112,0,1.5.144,1.578,1.669,1.13a102.222,102.222,0,0,1,57.2-.395,3.44,3.44,0,0,0,2.034.094,91.574,91.574,0,0,1,22.335-3.844,102.108,102.108,0,0,1,34.2,3.391c2.591.747,2.587.759,2.583-1.678q-.052-28.915-.1-57.83c-.007-3.856,0-3.856-4.228-5.106-2.169-.642-2.23-.606-2.226,1.417q.048,25.84.1,51.681c0,1.264.071,2.528.121,3.791.038.99-.393,1.3-1.549,1.043A103.324,103.324,0,0,0,816.99,383.4c-6.411.444-12.812,1.07-18.864,3.094a9.008,9.008,0,0,1-6.195.026,69.3,69.3,0,0,0-18.132-2.947,119.273,119.273,0,0,0-30.573,1.8c-1.888.385-1.957.342-1.968-1.33q-.124-18.773-.238-37.547-.05-8.832-.026-17.663c0-1.076-.311-1.476-1.549-1.019a21.718,21.718,0,0,1-2.809.88,2.369,2.369,0,0,0-2.127,2.783C734.679,341.425,734.442,351.369,734.906,363.814Zm-3.313,35.763c42.215-.28,84.387.058,126.573-.546a34.776,34.776,0,0,0-6.548-2.537,96.162,96.162,0,0,0-28.994-3.456,90.617,90.617,0,0,0-26.491,4.033,3.7,3.7,0,0,1-2.312-.008c-16.954-5-34.084-5.139-51.332-1.33A44.271,44.271,0,0,0,731.593,399.577Zm134.3-35.04c0-6.087,0-14.806,0-23.525,0-1.613-.03-3.226,0-4.839.014-.882-.42-1.286-1.424-1.274s-1.991-.019-2.986-.014c-1.829.009-1.971.117-1.954,1.71.044,4.1.152,8.193.168,12.291q.091,23.279.144,46.558c.014,3.79.039,3.79,4.247,3.764,2.067-.013,2.11-.035,2.1-1.833C866.118,387.306,866.3,377.236,865.891,364.536ZM730.031,367.6h-.1q0-.655,0-1.308c-.015-9.726-.049-19.452-.021-29.178,0-1.235-.415-1.8-1.88-1.664-.689.066-1.393.019-2.09.024-2.418.017-2.43.017-2.417,2.082.06,9.55.005,19.1.159,28.651.168,10.378.1,20.76.138,31.14,0,.393.021.786,0,1.177-.038.823.385,1.2,1.338,1.183,1.194-.025,2.391-.034,3.585,0,1.014.03,1.473-.335,1.428-1.234-.067-1.35-.134-2.7-.135-4.053Q730.019,381.011,730.031,367.6Z" transform="translate(-627.583 -278.216)" fill="#002e62"/></g><g transform="translate(158 625)" fill="none" stroke="#fff" stroke-linecap="round" stroke-width="10" stroke-dasharray="0 75"><circle cx="47.5" cy="47.5" r="47.5" stroke="none"/><circle cx="47.5" cy="47.5" r="42.5" fill="none"/></g></g></svg>